<mxfile host="app.diagrams.net" modified="2024-09-30T13:39:34.449Z" agent="Mozilla/5.0 (Windows NT 10.0; Win64; x64) AppleWebKit/537.36 (KHTML, like Gecko) Chrome/128.0.0.0 Safari/537.36" version="24.5.5" etag="FgUqEHDf5L0iSUCWWQUx" type="github">
  <diagram name="第 1 页" id="MRKfgJPNfiwixsYpZKyu">
    <mxGraphModel>
      <root>
        <mxCell id="0" />
        <mxCell id="1" parent="0" />
      </root>
    </mxGraphModel>
  </diagram>
</mxfile>
